<svg width="100" height="100" viewBox="0 0 64 64" xmlns="http://www.w3.org/2000/svg">
  <!-- Huevo roto -->
  <ellipse cx="32" cy="38" rx="20" ry="28" fill="#FFFFFF" stroke="#000000" stroke-width="2"/>
  <path d="M16 38c1.5-3 4.5-7 7-6 3 1 4 5 8 4s6-4 8-4 5 6 8 4c2.5-1.5 5.5 3 7 6" fill="none" stroke="#000000" stroke-width="2"/>

  <!-- Pollito -->
  <circle cx="32" cy="25" r="10" fill="#FFD966" stroke="#000000" stroke-width="2"/>
  <circle cx="28" cy="23" r="2" fill="#000000"/>
  <circle cx="36" cy="23" r="2" fill="#000000"/>
  <path d="M30 28c2 1 4 1 6 0" stroke="#000000" stroke-width="1.5" fill="none"/>

  <!-- Pico del pollito -->
  <polygon points="32,29 34,31 30,31" fill="#FFA500"/>

  <!-- Parte inferior del huevo roto -->
  <path d="M16 38c-1 4 2 8 7 8s8-4 8-4 4 4 8 4 8-4 8-4 6 4 8-4" fill="none" stroke="#000000" stroke-width="2"/>
</svg>